<svg width="16" height="19" viewBox="0 0 16 19" fill="none" xmlns="http://www.w3.org/2000/svg">
<path d="M0.00935165 10.3286C-0.156001 7.46505 1.88713 4.54223 4.89156 4.54223C5.58341 4.54223 5.89716 4.70294 6.65071 4.9372C7.05416 5.06263 7.73783 5.41118 8.13315 5.41118C8.52847 5.41118 9.00286 5.15444 9.64277 4.91996C10.5506 4.58731 11.0875 4.55173 11.612 4.54223C13.3711 4.54223 14.6626 5.27702 15.4861 6.41837C14.1269 7.30208 13.4107 8.3735 13.3711 10.1114C13.3711 11.6913 14.3792 13.2317 16 13.9229C15.6047 15.5818 13.47 18.9984 11.7108 18.9984C11.1067 18.9639 10.7355 18.8696 10.0307 18.6034C9.50552 18.3734 8.8052 18.2084 8.35058 18.2084C7.8762 18.1887 7.34452 18.3423 6.68036 18.6034C6.11704 18.8248 5.78139 18.9505 5.01013 18.9984C3.54746 19.0891 0.302425 15.4041 0.00935165 10.3286Z" fill="#D6D6D6"/>
<path d="M9.08192 1.46141C8.266 2.33933 7.95526 3.49554 8.01456 4.54223C9.35864 4.44348 10.2876 3.89052 11.1376 2.86358C11.9875 1.83664 11.9938 1.09041 11.9875 0C10.9983 0.160837 9.85279 0.631962 9.08192 1.46141Z" fill="#D6D6D6"/>
</svg>
